HIERARCHY
ROOT Hips
{
 OFFSET 0.000000 0.000000 0.000000
 CHANNELS 6 Xposition Yposition Zposition Yrotation Xrotation Zrotation
 JOINT Chest
 {
  OFFSET 0.000000 9.588913 -0.003946
  CHANNELS 3 Yrotation Xrotation Zrotation
  JOINT Chest2
  {
   OFFSET 0.000000 9.541882 0.008053
   CHANNELS 3 Yrotation Xrotation Zrotation
   JOINT Chest3
   {
    OFFSET 0.000000 9.501360 0.000000
    CHANNELS 3 Yrotation Xrotation Zrotation
    JOINT Chest4
    {
     OFFSET 0.000000 9.491660 0.000000
     CHANNELS 3 Yrotation Xrotation Zrotation
     JOINT Neck
     {
      OFFSET 0.000000 14.331917 0.000000
      CHANNELS 3 Yrotation Xrotation Zrotation
      JOINT Head
      {
       OFFSET 0.000000 8.884799 0.017034
       CHANNELS 3 Yrotation Xrotation Zrotation
       End Site
       {
        OFFSET 0.000000 16.896195 0.008993
       }
      }
     }
     JOINT RightCollar
     {
      OFFSET -2.923010 9.499495 0.000000
      CHANNELS 3 Yrotation Xrotation Zrotation
      JOINT RightShoulder
      {
       OFFSET -13.795216 0.000000 0.000000
       CHANNELS 3 Yrotation Xrotation Zrotation
       JOINT RightElbow
       {
        OFFSET -30.272209 0.000000 0.000000
        CHANNELS 3 Yrotation Xrotation Zrotation
        JOINT RightWrist
        {
         OFFSET -24.478199 0.000000 0.000000
         CHANNELS 3 Yrotation Xrotation Zrotation
         End Site
         {
          OFFSET -18.090752 0.000000 0.000000
         }
        }
       }
      }
     }
     JOINT LeftCollar
     {
      OFFSET 2.923010 9.499495 0.000000
      CHANNELS 3 Yrotation Xrotation Zrotation
      JOINT LeftShoulder
      {
       OFFSET 13.795216 0.000000 0.000000
       CHANNELS 3 Yrotation Xrotation Zrotation
       JOINT LeftElbow
       {
        OFFSET 30.272209 0.000000 0.000000
        CHANNELS 3 Yrotation Xrotation Zrotation
        JOINT LeftWrist
        {
         OFFSET 24.478199 0.000000 0.000000
         CHANNELS 3 Yrotation Xrotation Zrotation
         End Site
         {
          OFFSET 18.090752 0.000000 0.000000
         }
        }
       }
      }
     }
    }
   }
  }
 }
 JOINT RightHip
 {
  OFFSET -7.826875 0.019532 0.001973
  CHANNELS 3 Yrotation Xrotation Zrotation
  JOINT RightKnee
  {
   OFFSET 0.000000 -40.546152 -0.001885
   CHANNELS 3 Yrotation Xrotation Zrotation
   JOINT RightAnkle
   {
    OFFSET 0.000000 -39.417092 -0.003189
    CHANNELS 3 Yrotation Xrotation Zrotation
    JOINT RightToe
    {
     OFFSET 0.000000 -7.579396 17.243563
     CHANNELS 3 Yrotation Xrotation Zrotation
     End Site
     {
      OFFSET 0.000000 -1.500329 6.694466
     }
    }
   }
  }
 }
 JOINT LeftHip
 {
  OFFSET 7.826875 0.019532 0.001973
  CHANNELS 3 Yrotation Xrotation Zrotation
  JOINT LeftKnee
  {
   OFFSET 0.000000 -40.546152 -0.001885
   CHANNELS 3 Yrotation Xrotation Zrotation
   JOINT LeftAnkle
   {
    OFFSET 0.000000 -39.417092 -0.003189
    CHANNELS 3 Yrotation Xrotation Zrotation
    JOINT LeftToe
    {
     OFFSET 0.000000 -7.579396 17.243563
     CHANNELS 3 Yrotation Xrotation Zrotation
     End Site
     {
      OFFSET 0.000000 -1.500329 6.694466
     }
    }
   }
  }
 }
}
MOTION
Frames: 17
Frame Time: 0.008333
-70.004917 88.582398 70.879337 -46.026333 -10.200475 3.434052 2.243660 5.872405 0.427118 1.248259 3.350912 0.327091 1.563987 4.187460 0.420469 1.248259 3.350913 0.327091 -4.835745 39.525426 -0.703517 -5.484124 21.657812 0.197282 -9.591645 1.113484 -1.831660 -3.392307 4.918441 87.114511 10.533583 -1.878299 5.329524 -1.248545 -4.028805 -0.262091 -3.717309 0.305332 -1.891585 5.970139 4.774018 -83.208420 -13.877297 4.048622 -10.807000 3.159756 6.052360 0.758457 -8.206448 -3.817165 -7.184094 -1.776369 4.979936 -2.185371 3.833320 6.923725 3.266268 0.083109 -1.872295 0.458548 7.176353 12.284317 -1.804333 8.180903 6.692355 0.641736 12.081869 -9.148114 -1.036114 -0.062156 0.829198 0.324178
-69.756477 88.595343 70.874770 -46.071861 -10.314598 3.525523 2.248531 5.913046 0.355842 1.261189 3.364306 0.311042 1.580026 4.204244 0.400566 1.261189 3.364306 0.311042 -4.833976 39.494648 -0.682893 -5.485479 21.610590 0.221420 -9.614833 1.085394 -1.786911 -3.413594 4.950435 87.195920 10.138872 -1.446088 5.092926 -1.185250 -3.964124 -0.391871 -3.716731 0.311222 -1.906382 5.975944 4.815455 -83.026722 -13.785316 4.184245 -10.785042 3.177385 6.132039 0.589983 -8.361984 -3.751187 -7.327794 -1.671917 4.852885 -2.166831 3.982724 7.201253 3.341394 0.065247 -1.606022 0.349714 7.027749 12.531800 -1.992100 8.289097 6.225060 0.476308 12.051432 -8.850958 -0.813569 -0.051554 0.771098 0.312843
-69.518588 88.609404 70.865494 -46.122811 -10.401755 3.572728 2.255545 5.948005 0.312747 1.277145 3.369599 0.301197 1.599896 4.210880 0.388419 1.277145 3.369599 0.301197 -4.836572 39.467960 -0.670609 -5.490306 21.569785 0.236689 -9.638879 1.071629 -1.740279 -3.376864 4.955029 87.269489 9.720304 -1.046812 4.833659 -1.097372 -3.921996 -0.517481 -3.720784 0.340955 -1.923613 5.963417 4.813378 -82.851004 -13.653027 4.297527 -10.751673 3.206089 6.187541 0.425264 -8.541914 -3.699410 -7.430784 -1.550363 4.703414 -2.135764 4.139707 7.449188 3.415910 0.044288 -1.372111 0.258898 6.992472 12.750433 -2.108353 8.389321 5.764546 0.317130 11.950774 -8.562561 -0.595993 -0.039638 0.720249 0.301481
-69.292143 88.622947 70.853967 -46.174460 -10.458965 3.593130 2.261564 5.975048 0.283923 1.294247 3.365950 0.296260 1.621233 4.206321 0.382390 1.294247 3.365950 0.296260 -4.842642 39.447773 -0.666269 -5.497717 21.539069 0.243328 -9.658916 1.080402 -1.695822 -3.273245 4.932053 87.337130 9.288106 -0.708953 4.559319 -1.005040 -3.892990 -0.627745 -3.727966 0.393045 -1.939348 5.932898 4.781195 -82.694687 -13.483636 4.356587 -10.698536 3.261859 6.213864 0.281172 -8.689374 -3.673240 -7.497837 -1.470951 4.557344 -2.128890 4.301940 7.677116 3.499927 0.025585 -1.177983 0.189580 7.068774 12.941926 -2.175471 8.505738 5.307415 0.173691 11.760493 -8.276758 -0.395345 -0.025394 0.674588 0.296812
-69.077394 88.633966 70.842104 -46.223156 -10.482277 3.602824 2.265508 5.991007 0.258547 1.309778 3.354039 0.294371 1.640623 4.191424 0.380127 1.309778 3.354039 0.294371 -4.850574 39.433688 -0.670091 -5.505758 21.517700 0.240760 -9.667654 1.104365 -1.655353 -3.111184 4.890118 87.398416 8.853778 -0.439068 4.282611 -0.928619 -3.870464 -0.713576 -3.739827 0.455175 -1.953561 5.896970 4.737265 -82.564644 -13.289198 4.369923 -10.619087 3.344393 6.217823 0.160393 -8.766251 -3.688301 -7.541161 -1.460977 4.441328 -2.159005 4.459933 7.890716 3.595300 0.012440 -1.030339 0.141845 7.230477 13.109379 -2.211370 8.647843 4.846986 0.039691 11.473858 -7.990026 -0.208132 -0.009133 0.634547 0.296173
-68.874704 88.640631 70.831521 -46.267279 -10.471783 3.614076 2.266592 5.995086 0.231333 1.321165 3.336436 0.292970 1.654828 4.169416 0.378413 1.321165 3.336436 0.292970 -4.857893 39.422260 -0.680412 -5.511776 21.500217 0.230463 -9.656599 1.128450 -1.617797 -2.910363 4.842928 87.449991 8.431111 -0.227288 4.017519 -0.887685 -3.851558 -0.769228 -3.752554 0.509097 -1.965779 5.865104 4.699660 -82.466189 -13.082338 4.355334 -10.508009 3.439203 6.213733 0.059534 -8.758612 -3.753968 -7.578140 -1.509358 4.373768 -2.210602 4.583097 8.092193 3.685512 0.011225 -0.929433 0.116627 7.446105 13.256467 -2.235204 8.796450 4.379633 -0.091206 11.132134 -7.701537 -0.028011 0.008094 0.601847 0.294730
-68.685832 88.641858 70.823657 -46.300861 -10.438404 3.629306 2.262397 5.990496 0.203326 1.326108 3.317010 0.290615 1.660965 4.145138 0.375440 1.326108 3.317010 0.290614 -4.863173 39.410508 -0.693569 -5.514787 21.482013 0.216453 -9.624721 1.141982 -1.581032 -2.691344 4.803195 87.490387 8.035346 -0.059764 3.772576 -0.892561 -3.825769 -0.794940 -3.760180 0.543306 -1.972861 5.842547 4.681924 -82.402582 -12.876037 4.324611 -10.363846 3.538680 6.210580 -0.017232 -8.694949 -3.861307 -7.619097 -1.581383 4.354523 -2.264213 4.656400 8.282758 3.759046 0.023832 -0.869496 0.109683 7.679852 13.385885 -2.262811 8.920033 3.918863 -0.213589 10.807034 -7.420771 0.142574 0.025500 0.578759 0.290255
-68.513797 88.638113 70.823052 -46.306171 -10.417542 3.654584 2.235623 6.002370 0.165071 1.324410 3.298905 0.288012 1.658795 4.122519 0.372103 1.324410 3.298906 0.288012 -4.865344 39.397837 -0.706295 -5.514214 21.462189 0.202314 -9.575120 1.140690 -1.547514 -2.471192 4.780713 87.525176 7.679904 0.077499 3.553329 -0.944809 -3.785246 -0.795088 -3.761960 0.553345 -1.974680 5.832965 4.689760 -82.370518 -12.681148 4.289506 -10.187483 3.639468 6.214777 -0.068475 -8.644318 -3.974980 -7.677103 -1.638771 4.370754 -2.313365 4.682379 8.478074 3.810717 0.057704 -0.856607 0.118150 7.876750 13.520222 -2.308303 9.010882 3.494984 -0.320732 10.527394 -7.189036 0.297466 0.039864 0.584003 0.281779
-68.358800 88.628586 70.823352 -46.298301 -10.388426 3.664124 2.206696 6.002131 0.143223 1.317647 3.283840 0.285799 1.650300 4.103702 0.369218 1.317646 3.283841 0.285799 -4.865045 39.384858 -0.717406 -5.511080 21.441772 0.189548 -9.513255 1.127922 -1.523123 -2.262264 4.775842 87.563646 7.370831 0.198330 3.361733 -1.038045 -3.732813 -0.774366 -3.762352 0.539293 -1.975640 5.835424 4.721262 -82.362208 -12.501394 4.262122 -9.982277 3.738346 6.238383 -0.094333 -8.636223 -4.104322 -7.715140 -1.663786 4.407411 -2.361787 4.705702 8.640539 3.858276 0.086878 -0.847912 0.126368 8.034222 13.627078 -2.344716 9.082821 3.116055 -0.411096 10.289986 -6.971512 0.434700 0.047698 0.579504 0.267598
-68.221998 88.615677 70.832455 -46.256381 -10.401062 3.681117 2.149870 6.030163 0.113081 1.307024 3.273916 0.283905 1.636988 4.091313 0.366719 1.307024 3.273916 0.283905 -4.864609 39.372229 -0.727804 -5.507948 21.421914 0.177579 -9.445852 1.111071 -1.512355 -2.077249 4.781920 87.610910 7.108987 0.314733 3.196868 -1.160990 -3.674313 -0.736236 -3.763578 0.504131 -1.980161 5.844201 4.772401 -82.367342 -12.334904 4.249920 -9.758037 3.827553 6.281922 -0.093847 -8.712691 -4.198683 -7.768913 -1.660088 4.449506 -2.406976 4.734637 8.797096 3.894461 0.127916 -0.861295 0.139122 8.120470 13.761875 -2.396630 9.148402 2.781033 -0.487454 10.087940 -6.797196 0.561558 0.050668 0.587656 0.247437
-68.100098 88.599140 70.843378 -46.215938 -10.421789 3.690894 2.102959 6.045716 0.093596 1.293103 3.271296 0.282284 1.619562 4.088056 0.364557 1.293103 3.271297 0.282284 -4.864713 39.360830 -0.737862 -5.505560 21.404011 0.166097 -9.375605 1.096457 -1.513205 -1.929626 4.790389 87.664932 6.893611 0.436852 3.057400 -1.305669 -3.616066 -0.681495 -3.761206 0.452600 -1.989601 5.849880 4.834990 -82.377088 -12.179905 4.256207 -9.527264 3.899767 6.332114 -0.070317 -8.829897 -4.276108 -7.819331 -1.639016 4.483558 -2.441474 4.803100 8.911023 3.937813 0.150497 -0.854561 0.142267 8.185788 13.889307 -2.442577 9.210145 2.485169 -0.552752 9.916996 -6.640318 0.679332 0.049498 0.588814 0.223216
-67.991987 88.580597 70.858258 -46.172617 -10.469053 3.700324 2.058615 6.064211 0.075336 1.277198 3.275927 0.281270 1.599668 4.093861 0.363163 1.277198 3.275927 0.281270 -4.864621 39.351688 -0.746501 -5.503317 21.389627 0.156188 -9.307179 1.091023 -1.520958 -1.828772 4.791808 87.718785 6.718690 0.571109 2.947628 -1.460010 -3.560612 -0.614191 -3.755255 0.391730 -2.006287 5.849932 4.897891 -82.382072 -12.033748 4.284860 -9.302908 3.955291 6.378097 -0.025094 -8.957872 -4.310735 -7.879282 -1.611709 4.499253 -2.463125 4.876623 9.006362 3.984095 0.161839 -0.841081 0.139222 8.233901 14.030276 -2.486980 9.263550 2.225499 -0.609909 9.778132 -6.508469 0.789145 0.045775 0.591660 0.198397
-67.894491 88.560664 70.874884 -46.133483 -10.532965 3.707053 2.024537 6.079074 0.059780 1.261536 3.285321 0.280982 1.580091 4.105618 0.362697 1.261536 3.285320 0.280982 -4.864460 39.345936 -0.752789 -5.501601 21.380548 0.148940 -9.250817 1.102487 -1.533457 -1.776541 4.781483 87.768336 6.581533 0.716655 2.874444 -1.608575 -3.504616 -0.542529 -3.753916 0.330149 -2.033667 5.850076 4.952364 -82.367983 -11.892550 4.337840 -9.099634 3.993630 6.413510 0.038122 -9.056286 -4.306678 -7.943366 -1.587291 4.491924 -2.474186 4.929167 9.093198 4.033485 0.163353 -0.822152 0.131379 8.278317 14.175844 -2.524933 9.301918 1.997187 -0.662766 9.671807 -6.397749 0.891104 0.041329 0.597347 0.175925
-67.804432 88.539905 70.891528 -46.097807 -10.604652 3.709142 2.002824 6.087517 0.048273 1.247303 3.296613 0.281217 1.562308 4.119744 0.362904 1.247303 3.296613 0.281217 -4.865080 39.344137 -0.755966 -5.501592 21.377721 0.145407 -9.214526 1.133129 -1.547145 -1.764939 4.762393 87.812894 6.484251 0.864728 2.836955 -1.739498 -3.445835 -0.472517 -3.765302 0.273439 -2.073124 5.857860 4.995082 -82.324556 -11.757634 4.416875 -8.928124 4.013232 6.437599 0.111072 -9.112452 -4.274619 -8.008194 -1.574236 4.465867 -2.477620 4.958867 9.175669 4.085502 0.160905 -0.800140 0.121548 8.319537 14.313309 -2.552496 9.316197 1.804570 -0.716058 9.599596 -6.308227 0.985050 0.037137 0.606185 0.157732
-67.718826 88.518870 70.907169 -46.057704 -10.677042 3.706078 1.988419 6.090782 0.039929 1.234584 3.307243 0.282048 1.546422 4.133040 0.363865 1.234583 3.307243 0.282048 -4.866853 39.345570 -0.755861 -5.503738 21.380060 0.145873 -9.199801 1.178500 -1.558485 -1.782593 4.740706 87.852717 6.425536 1.001287 2.830043 -1.843099 -3.388863 -0.409252 -3.793558 0.222206 -2.126013 5.878626 5.024837 -82.250721 -11.631693 4.523437 -8.791550 4.018315 6.454238 0.189075 -9.139255 -4.228438 -8.071258 -1.578278 4.430188 -2.476451 4.970554 9.252703 4.138317 0.156309 -0.776280 0.110385 8.346107 14.431122 -2.570471 9.304886 1.652364 -0.771922 9.556992 -6.239490 1.072564 0.032368 0.617133 0.142948
-67.634697 88.497953 70.920830 -46.009042 -10.740045 3.699348 1.975361 6.089727 0.031179 1.223488 3.314525 0.283333 1.532567 4.142148 0.365397 1.223488 3.314525 0.283333 -4.869119 39.349593 -0.753494 -5.507027 21.386502 0.149028 -9.203157 1.231404 -1.568354 -1.818924 4.722146 87.891854 6.400970 1.115010 2.849808 -1.911865 -3.342034 -0.358014 -3.835763 0.178693 -2.189998 5.906552 5.038395 -82.152663 -11.517436 4.648044 -8.686553 4.014521 6.464290 0.266644 -9.155099 -4.185149 -8.130736 -1.595733 4.390485 -2.473568 4.972150 9.324187 4.190759 0.150622 -0.751378 0.098829 8.345551 14.519925 -2.584989 9.288295 1.535637 -0.828811 9.522360 -6.185949 1.154861 0.025488 0.628985 0.130214
-67.550105 88.477525 70.931896 -45.951574 -10.786363 3.690084 1.960707 6.083239 0.020472 1.213132 3.316681 0.285205 1.519636 4.144846 0.367651 1.213132 3.316681 0.285205 -4.871680 39.356852 -0.750624 -5.510872 21.397981 0.152775 -9.217217 1.288554 -1.582636 -1.865233 4.709841 87.936584 6.407319 1.197649 2.891408 -1.943596 -3.310463 -0.321804 -3.882845 0.149224 -2.258033 5.928454 5.035798 -82.044224 -11.420425 4.769313 -8.606735 4.005105 6.474179 0.337877 -9.172562 -4.154901 -8.185507 -1.615789 4.345552 -2.472791 4.973244 9.393327 4.247026 0.146354 -0.727609 0.087469 8.320605 14.575900 -2.602367 9.297480 1.444353 -0.883755 9.473550 -6.140225 1.231738 0.017521 0.641212 0.120871
